<?xml version="1.0" standalone="no"?>
<!DOCTYPE svg PUBLIC "-//W3C//DTD SVG 20010904//EN"
 "http://www.w3.org/TR/2001/REC-SVG-20010904/DTD/svg10.dtd">
<svg version="1.0" xmlns="http://www.w3.org/2000/svg"
 width="1024.000000pt" height="1024.000000pt" viewBox="0 0 1024.000000 1024.000000"
 preserveAspectRatio="xMidYMid meet">
<metadata>
Created by potrace 1.14, written by Peter Selinger 2001-2017
</metadata>
<g transform="translate(0.000000,1024.000000) scale(0.100000,-0.100000)"
fill="#000000" stroke="none">
<path d="M0 5120 l0 -5120 5120 0 5120 0 0 5120 0 5120 -5120 0 -5120 0 0
-5120z m5560 3440 l0 -910 -2390 0 -2390 0 0 910 0 910 2390 0 2390 0 0 -910z
m2819 878 c556 -118 973 -555 1066 -1117 21 -122 16 -382 -9 -491 -38 -167
-124 -368 -206 -482 -17 -24 -156 -168 -307 -321 l-277 -278 -950 950 -951
951 275 276 c278 278 338 328 476 397 84 42 245 100 329 117 158 33 392 33
554 -2z m-1086 -2146 l948 -948 -2510 -2509 c-1381 -1381 -2521 -2514 -2533
-2518 -46 -16 -2412 -537 -2417 -532 -2 3 116 551 264 1218 l269 1212 2510
2513 c1381 1381 2513 2512 2516 2512 3 0 432 -427 953 -948z m2167 -5612 l0
-910 -2390 0 -2390 0 0 910 0 910 2390 0 2390 0 0 -910z"/>
<path d="M4475 4950 l-1900 -1900 235 -235 235 -235 1900 1900 1900 1900 -235
235 -235 235 -1900 -1900z"/>
</g>
</svg>
